<svg xmlns="http://www.w3.org/2000/svg" viewBox="0 0 180 175"><title>icon-plans-space</title><path d="M90,3A90,90,0,0,0,0,93H0a89.88,89.88,0,0,0,37.36,73H142.64A90,90,0,0,0,90,3Z" transform="translate(0 -3)" fill="#e4eaea"/><path d="M28,166h4m5,0h3m5,0h98m6,0h2" transform="translate(0 -3)" fill="none" stroke="#31364c" stroke-linecap="round" stroke-linejoin="round" stroke-width="2" fill-rule="evenodd"/><path d="M59,171h8m6,0h46m6,0h1m6,0h6" transform="translate(0 -3)" fill="none" stroke="#31364c" stroke-linecap="round" stroke-linejoin="round" stroke-width="2" fill-rule="evenodd"/><path d="M40,177h6m6,0H90" transform="translate(0 -3)" fill="none" stroke="#31364c" stroke-linecap="round" stroke-linejoin="round" stroke-width="2" fill-rule="evenodd"/><line x1="95" y1="174" x2="96" y2="174" fill="none" stroke="#31364c" stroke-linecap="round" stroke-linejoin="round" stroke-width="2"/><path d="M46,177a3,3,0,1,1,6,0" transform="translate(0 -3)" fill="none" stroke="#31364c" stroke-linecap="round" stroke-linejoin="round" stroke-width="2" fill-rule="evenodd"/><path d="M89.5,150c-35.69,0-66.18-10-78.56-24C17,148,52.13,164.9,94.5,164.9a150.76,150.76,0,0,0,26.8-2.36c30.9-6.81,52.7-23.22,52.7-42.4v-7.25h-0.05C172.89,133.47,135.5,150,89.5,150Z" transform="translate(0 -3)" fill="#cc4f67"/><path d="M142.1,156l-1.07.45" transform="translate(0 -3)" fill="none" stroke="#31364c" stroke-linecap="round" stroke-linejoin="round" stroke-width="2" fill-rule="evenodd"/><path d="M57,147.09c-29.95-5.62-51.16-18.77-51.95-34.19H5v7.25c0,25.28,37.83,45.77,84.5,45.77A140.92,140.92,0,0,0,134.17,159" transform="translate(0 -3)" fill="none" stroke="#31364c" stroke-linecap="round" stroke-linejoin="round" stroke-width="2" fill-rule="evenodd"/><path d="M148,153.16c16-8.33,26-20,26-33v-7.25h-0.05C172.89,133.47,135.5,150,89.5,150A181.08,181.08,0,0,1,63,148.09" transform="translate(0 -3)" fill="none" stroke="#31364c" stroke-linecap="round" stroke-linejoin="round" stroke-width="2" fill-rule="evenodd"/><path d="M89,155a3,3,0,1,0,3,3A3,3,0,0,0,89,155Zm-38-3a2,2,0,1,0,2,2A2,2,0,0,0,51,152ZM20,138.39a1.72,1.72,0,0,0-2.34-.12,1.7,1.7,0,0,0,.69,2.23,1.72,1.72,0,0,0,2.34.12A1.7,1.7,0,0,0,20,138.39ZM129,152a2,2,0,1,0,2,2A2,2,0,0,0,129,152Zm31.53-13.73a1.72,1.72,0,0,0-2.34.12,1.7,1.7,0,0,0-.69,2.23,1.72,1.72,0,0,0,2.34-.12A1.7,1.7,0,0,0,160.53,138.27Z" transform="translate(0 -3)" fill="#f8cf7d" stroke="#31364c" stroke-linecap="round" stroke-linejoin="round" stroke-width="2"/><path d="M137.91,80.86a40.21,40.21,0,0,1,4.3,17.51,33.47,33.47,0,0,1-.19,3.56l0,0v4.54c0,12.52-24.08,22.67-52.52,22.67S39,119,39,106.49V95.15a10.7,10.7,0,0,0,.21,2.06,40.11,40.11,0,0,1,3.59-14.9C23.43,89.27,11,100,11,112c0,20.53,36.22,37.25,81.5,38,45.28-.71,81.5-17.43,81.5-38C174,99.11,159.73,87.73,137.91,80.86Z" transform="translate(0 -3)" fill="#f77890"/><path d="M32,84.17a109.27,109.27,0,0,1,11-3.9m10.91-2.74A175.12,175.12,0,0,1,89.5,74c26.55,0,50.24,5.51,65.73,14.12m5,3c8.74,6,13.82,13.14,13.82,20.83,0,21-37.83,38-84.5,38a181.18,181.18,0,0,1-26.41-1.89M56.31,147C26.14,141.15,5,127.69,5,112c0-7.46,4.78-14.42,13.05-20.3m6.2-3.85,1.32-.7" transform="translate(0 -3)" fill="none" stroke="#31364c" stroke-linecap="round" stroke-linejoin="round" stroke-width="2" fill-rule="evenodd"/><path d="M36.17,92.16c0.56,1,2.11,1.36,3.83.93v-6a7.71,7.71,0,0,0-1,.43C36.71,88.7,35.44,90.79,36.17,92.16Zm-15.83,21c-1.05,1.15-.35,3.49,1.56,5.24s4.33,2.24,5.38,1.09,0.35-3.49-1.56-5.24S21.4,112,20.35,113.16Zm31.37,18.76c-2.54-.58-4.87.19-5.22,1.7s1.43,3.21,4,3.78,4.87-.18,5.22-1.7S54.26,132.5,51.72,131.93Zm75.56-.38c-2.54.58-4.31,2.27-4,3.78s2.69,2.27,5.22,1.7,4.31-2.27,4-3.78S129.82,131,127.28,131.55Zm29.84-18.38c-1.05-1.15-3.46-.66-5.38,1.09s-2.62,4.09-1.56,5.24,3.46,0.66,5.38-1.09S158.17,114.31,157.12,113.16ZM139.6,89c-2.3-1.21-4.76-1.08-5.49.29S134.66,92.77,137,94s4.76,1.08,5.49-.29S141.9,90.22,139.6,89ZM89.5,136.56c-3.18,0-5.75,1.54-5.75,3.44s2.57,3.44,5.75,3.44,5.75-1.54,5.75-3.44S92.68,136.56,89.5,136.56Z" transform="translate(0 -3)" fill="#cc4f67" opacity="0.8"/><path d="M20.35,113.16c-1.05,1.15-.35,3.49,1.56,5.24s4.33,2.24,5.38,1.09,0.35-3.49-1.56-5.24S21.4,112,20.35,113.16Zm31.37,18.76c-2.54-.58-4.87.19-5.22,1.7s1.43,3.21,4,3.78,4.87-.18,5.22-1.7S54.26,132.5,51.72,131.93Zm37.78,4.64c-3.18,0-5.75,1.54-5.75,3.44s2.57,3.44,5.75,3.44,5.75-1.54,5.75-3.44S92.68,136.56,89.5,136.56ZM36.17,92.16A2.77,2.77,0,0,0,39,93.26c0.32,0,1-6.21,1-6.21a7.71,7.71,0,0,0-1,.43C36.71,88.7,35.44,90.79,36.17,92.16Zm120.94,21c-1.05-1.15-3.46-.66-5.38,1.09s-2.62,4.09-1.56,5.24,3.46,0.66,5.38-1.09S158.17,114.31,157.12,113.16Zm-29.84,18.38c-2.54.58-4.31,2.27-4,3.78s2.69,2.27,5.22,1.7,4.31-2.27,4-3.78S129.82,131,127.28,131.55ZM139.6,89c-2.3-1.21-4.76-1.08-5.49.29S134.66,92.77,137,94s4.76,1.08,5.49-.29S141.9,90.22,139.6,89Z" transform="translate(0 -3)" fill="none" stroke="#31364c" stroke-linecap="round" stroke-linejoin="round" stroke-width="2"/><path d="M140.73,88.23a37.3,37.3,0,0,1,1.47,10.14,33.47,33.47,0,0,1-.19,3.56l0,0v4.54c0,12.52-24.08,22.67-52.52,22.67a112.89,112.89,0,0,1-12.54-.69A172.62,172.62,0,0,0,107,131c36.45,0,66-10.3,66-23C173,99.59,160.05,92.24,140.73,88.23Z" transform="translate(0 -3)" fill="#707686" opacity="0.2"/><path d="M93.69,51.1C66.64,52.74,45.18,76.39,45.18,98.37a33.49,33.49,0,0,0,.19,3.56c5.75,9.42,25,16.47,48.32,17,23.3-.56,42.57-7.61,48.32-17a33.47,33.47,0,0,0,.19-3.56C142.2,76.39,120.74,52.74,93.69,51.1Z" transform="translate(0 -3)" fill="#a5def2"/><path d="M116.2,56.93l1.26,0.74M39.38,100.93a33.5,33.5,0,0,1-.19-3.56C39.18,74.58,62.24,50,90.69,50a50.39,50.39,0,0,1,19.18,3.83m13.39,7.92C134.82,71,142.2,84.48,142.2,97.37a33.5,33.5,0,0,1-.19,3.56" transform="translate(0 -3)" fill="none" stroke="#31364c" stroke-linecap="round" stroke-linejoin="round" stroke-width="2" fill-rule="evenodd"/><path d="M60,72.5l0.26-.31m3.85-4q0.57-.53,1.16-1m4.67-3.51A41.19,41.19,0,0,1,92.5,56.73" transform="translate(0 -3)" fill="none" stroke="#fff" stroke-linecap="round" stroke-linejoin="round" stroke-width="2" fill-rule="evenodd"/><ellipse cx="102.17" cy="57.94" rx="3.86" ry="3.81" fill="#fff"/><ellipse cx="110.62" cy="63.67" rx="1.94" ry="1.92" fill="#fff"/><path d="M113.72,115.2a110,110,0,0,1-24.25,2.62c-20.34,0-37.4-5.2-45.46-12.74v0.4c0,12.52,22,22.67,50.46,22.67a113.22,113.22,0,0,0,19.25-1.62c16.64-3.8,28.27-11.35,28.27-20.05V99C136.75,107.33,126.08,113.06,113.72,115.2Z" transform="translate(0 -3)" fill="#f46b85"/><path d="M122,112.87l-1,.34" transform="translate(0 -3)" fill="none" stroke="#31364c" stroke-linecap="round" stroke-linejoin="round" stroke-width="2" fill-rule="evenodd"/><path d="M114,115.14a109.8,109.8,0,0,1-24.53,2.68C61,117.82,39,107.67,39,95.15v11.34c0,12.52,22,22.67,50.46,22.67S142,119,142,106.49V95.15c0,5.67-4.94,10.86-13,14.83" transform="translate(0 -3)" fill="none" stroke="#31364c" stroke-linecap="round" stroke-linejoin="round" stroke-width="2" fill-rule="evenodd"/><path d="M139.82,101.24c-5.61,10-26,17.38-50.32,17.38H88.57a60,60,0,0,1-4.15,8c-0.6,1-1.23,1.91-1.87,2.84,2.27,0.14,4.59.21,6.94,0.21,28.64,0,51.85-10.26,51.85-22.92A11.23,11.23,0,0,0,139.82,101.24Z" transform="translate(0 -3)" fill="#707686" fill-rule="evenodd" opacity="0.2"/></svg>