<svg xmlns="http://www.w3.org/2000/svg" viewBox="0 0 180 175"><title>icon-plan-start</title><path d="M90,3A90,90,0,0,0,0,93H0a89.88,89.88,0,0,0,37.36,73H142.64A90,90,0,0,0,90,3Z" transform="translate(0 -3)" fill="#e4eaea"/><path d="M28,166h4m5,0h3m5,0h98m6,0h2" transform="translate(0 -3)" fill="none" stroke="#31364c" stroke-linecap="round" stroke-miterlimit="10" stroke-width="2" fill-rule="evenodd"/><path d="M59,171h8m6,0h46m6,0h1m6,0h6" transform="translate(0 -3)" fill="none" stroke="#31364c" stroke-linecap="round" stroke-miterlimit="10" stroke-width="2" fill-rule="evenodd"/><path d="M40,177h6m6,0H89" transform="translate(0 -3)" fill="none" stroke="#31364c" stroke-linecap="round" stroke-miterlimit="10" stroke-width="2" fill-rule="evenodd"/><line x1="95" y1="174" x2="96" y2="174" fill="none" stroke="#31364c" stroke-linecap="round" stroke-miterlimit="10" stroke-width="2"/><path d="M46,177a3,3,0,1,1,6,0" transform="translate(0 -3)" fill="none" stroke="#31364c" stroke-linecap="round" stroke-linejoin="round" stroke-width="2" fill-rule="evenodd"/><path d="M133,144a10.94,10.94,0,0,0-5.14,1.28,6,6,0,1,0-11.8-2.12A4,4,0,0,0,115,143a4,4,0,0,0-4,3.86,14,14,0,0,0-25-2c0-.12,0-0.23,0-0.34a5.47,5.47,0,0,0-6.38-5.42c-2.18,1.56-2.62-.92-2.62-0.92s0-.1,0-0.16a4,4,0,0,0-5.21-3.79A8,8,0,0,0,56.07,137,13,13,0,1,0,51,162h0.62A1.66,1.66,0,0,1,53,164c-0.13,1.71-1.87,2-2.64,2H133A11,11,0,0,0,133,144ZM50.36,166h0Z" transform="translate(0 -3)" fill="#f2ece8" fill-rule="evenodd"/><path d="M44,133.09a16.9,16.9,0,0,1,9.17-.79,11,11,0,0,1,4.63-7.36M62,123.18a11.15,11.15,0,0,1,2-.18,11,11,0,0,1,10.58,8,6,6,0,0,1,5,8A5.47,5.47,0,0,1,86,144.5c0,0.12,0,.23,0,0.34a14,14,0,0,1,18-5.48m4,2.9a14,14,0,0,1,3,4.6,4,4,0,0,1,4-3.86,4,4,0,0,1,1.07.16,6,6,0,1,1,11.8,2.12,11,11,0,0,1,15,4.76m1.18,5c0,0.3,0,.59,0,0.88m-1.79,5.19A11,11,0,0,1,133,166H50a17,17,0,0,1-14.42-26" transform="translate(0 -3)" fill="none" stroke="#31364c" stroke-linecap="round" stroke-linejoin="round" stroke-width="2" fill-rule="evenodd"/><path d="M48,151a6,6,0,0,1,11.6-2.09A4,4,0,0,1,67,151" transform="translate(0 -3)" fill="none" stroke="#31364c" stroke-linecap="round" stroke-linejoin="round" stroke-width="2" fill-rule="evenodd"/><path d="M122,156a3,3,0,0,1,6,0" transform="translate(0 -3)" fill="none" stroke="#31364c" stroke-linecap="round" stroke-linejoin="round" stroke-width="2" fill-rule="evenodd"/><line x1="132" y1="153" x2="128" y2="153" fill="none" stroke="#31364c" stroke-linecap="round" stroke-linejoin="round" stroke-width="2"/><line x1="73" y1="148" x2="67" y2="148" fill="none" stroke="#31364c" stroke-linecap="round" stroke-linejoin="round" stroke-width="2"/><line x1="92" y1="130" x2="92" y2="145" fill="none" stroke="#31364c" stroke-linecap="round" stroke-linejoin="round" stroke-width="2"/><line x1="97" y1="139" x2="97" y2="150" fill="none" stroke="#31364c" stroke-linecap="round" stroke-linejoin="round" stroke-width="2"/><line x1="87" y1="144" x2="87" y2="152" fill="none" stroke="#31364c" stroke-linecap="round" stroke-linejoin="round" stroke-width="2"/><line x1="99" y1="143" x2="99" y2="153" fill="none" stroke="#f46b85" stroke-linecap="round" stroke-linejoin="round" stroke-width="2"/><line x1="89" y1="147" x2="89" y2="155" fill="none" stroke="#fee176" stroke-linecap="round" stroke-linejoin="round" stroke-width="2"/><path d="M55,115H65V99.14C59.16,101.57,55,107.74,55,115Z" transform="translate(0 -3)" fill="#f46b85"/><path d="M65,115H50a18.41,18.41,0,0,1,1-6.12M53,105q0.34-.5.71-1M57,100.79A14.54,14.54,0,0,1,65,98" transform="translate(0 -3)" fill="none" stroke="#31364c" stroke-linecap="round" stroke-linejoin="round" stroke-width="2" fill-rule="evenodd"/><path d="M117,98v17h15C132,105.8,125.33,98.32,117,98Z" transform="translate(0 -3)" fill="#f46b85" fill-rule="evenodd"/><path d="M117,115h15c0-9.2-6.67-16.68-15-17" transform="translate(0 -3)" fill="none" stroke="#31364c" stroke-linecap="round" stroke-linejoin="round" stroke-width="2" fill-rule="evenodd"/><path d="M102,122v-2H85v2a6,6,0,0,0,6,6h5A6,6,0,0,0,102,122Z" transform="translate(0 -3)" fill="#a4b4c3"/><path d="M81,120v2a6,6,0,0,0,6,6h9a6,6,0,0,0,6-6v-2H81Z" transform="translate(0 -3)" fill="none" stroke="#31364c" stroke-linecap="round" stroke-linejoin="round" stroke-width="2" fill-rule="evenodd"/><path d="M117,116v-1H70v1a4,4,0,0,0,4,4h39A4,4,0,0,0,117,116Z" transform="translate(0 -3)" fill="#a4b4c3"/><path d="M65,115v1a4,4,0,0,0,4,4h44a4,4,0,0,0,4-4v-1H65Z" transform="translate(0 -3)" fill="none" stroke="#31364c" stroke-linecap="round" stroke-linejoin="round" stroke-width="2" fill-rule="evenodd"/><path d="M93.5,51.25C80.31,53.82,70,76.76,70,111c0,1.33,0,2.64.05,4h46.9c0-1.31.05-2.62,0.05-4C117,76.76,106.69,53.82,93.5,51.25Z" transform="translate(0 -3)" fill="#f46b85"/><path d="M76,61c4.23-6.48,9.4-10,15-10,9.52,0,17.85,10.39,22.38,28m1.34,6,0.2,1.09M115.83,92A148.74,148.74,0,0,1,117,111c0,1.33,0,2.65-.05,4H65.05c0-1.31-.05-2.63-0.05-4C65,95.89,67,83,70.4,73m2.35-5.94q0.27-.6.55-1.18" transform="translate(0 -3)" fill="none" stroke="#31364c" stroke-linecap="round" stroke-linejoin="round" stroke-width="2" fill-rule="evenodd"/><circle cx="91.5" cy="88.5" r="12.5" fill="#faf1df"/><path d="M80.54,88A11.53,11.53,0,0,1,88,80.54" transform="translate(0 -3)" fill="none" stroke="#e1d4b9" stroke-linecap="round" stroke-linejoin="round" stroke-width="2" fill-rule="evenodd"/><path d="M81,91.5A10.5,10.5,0,0,1,91.5,81" transform="translate(0 -3)" fill="none" stroke="#e1d4b9" stroke-linecap="round" stroke-linejoin="round" stroke-width="2" fill-rule="evenodd"/><path d="M85,80.79A12.5,12.5,0,1,1,81,84.72" transform="translate(0 -3)" fill="none" stroke="#31364c" stroke-linecap="round" stroke-linejoin="round" stroke-width="2" fill-rule="evenodd"/></svg>