<svg xmlns="http://www.w3.org/2000/svg" viewBox="0 0 508.25 392.92"><title>illustration-answer</title><line x1="145.95" y1="361.92" x2="253.95" y2="361.92" fill="none" stroke="#31364c" stroke-linecap="round" stroke-linejoin="round" stroke-width="6"/><line x1="265.95" y1="361.92" x2="358.95" y2="361.92" fill="none" stroke="#31364c" stroke-linecap="round" stroke-linejoin="round" stroke-width="6"/><line x1="370.95" y1="361.92" x2="463.95" y2="361.92" fill="none" stroke="#31364c" stroke-linecap="round" stroke-linejoin="round" stroke-width="6"/><line x1="199.95" y1="375.92" x2="255.95" y2="375.92" fill="none" stroke="#6e7281" stroke-linecap="round" stroke-linejoin="round" stroke-width="6"/><line x1="267.95" y1="375.92" x2="268.95" y2="375.92" fill="none" stroke="#6e7281" stroke-linecap="round" stroke-linejoin="round" stroke-width="6"/><line x1="280.95" y1="375.92" x2="338.95" y2="375.92" fill="none" stroke="#6e7281" stroke-linecap="round" stroke-linejoin="round" stroke-width="6"/><line x1="337.95" y1="389.92" x2="396.95" y2="389.92" fill="none" stroke="#adafb7" stroke-linecap="round" stroke-linejoin="round" stroke-width="6"/><line x1="324.95" y1="389.92" x2="325.95" y2="389.92" fill="none" stroke="#adafb7" stroke-linecap="round" stroke-linejoin="round" stroke-width="6"/><line x1="410.95" y1="389.92" x2="436.95" y2="389.92" fill="none" stroke="#adafb7" stroke-linecap="round" stroke-linejoin="round" stroke-width="6"/><path d="M399,391a7,7,0,0,1,14,0" transform="translate(-2.05 -1.08)" fill="none" stroke="#adafb7" stroke-linecap="round" stroke-linejoin="round" stroke-width="6" fill-rule="evenodd"/><path d="M438,154H291a18,18,0,0,0-18,18v92a18,18,0,0,0,18,18h93.92L426,314V282h12a18,18,0,0,0,18-18V172A18,18,0,0,0,438,154Z" transform="translate(-2.05 -1.08)" fill="#cfd9e5" fill-rule="evenodd"/><path d="M444,156V280a12,12,0,0,0,12-12V168A12,12,0,0,0,444,156Z" transform="translate(-2.05 -1.08)" fill="#b9bdc9" fill-rule="evenodd"/><line x1="435.95" y1="164.92" x2="446.95" y2="164.92" fill="none" stroke="#b9bdc9" stroke-linecap="round" stroke-linejoin="round" stroke-width="6"/><line x1="430.95" y1="176.92" x2="446.95" y2="176.92" fill="none" stroke="#b9bdc9" stroke-linecap="round" stroke-linejoin="round" stroke-width="6"/><line x1="420.95" y1="176.92" x2="421.95" y2="176.92" fill="none" stroke="#b9bdc9" stroke-linecap="round" stroke-linejoin="round" stroke-width="6"/><line x1="441.95" y1="188.92" x2="446.95" y2="188.92" fill="none" stroke="#b9bdc9" stroke-linecap="round" stroke-linejoin="round" stroke-width="6"/><line x1="434.95" y1="200.92" x2="446.95" y2="200.92" fill="none" stroke="#b9bdc9" stroke-linecap="round" stroke-linejoin="round" stroke-width="6"/><line x1="439.95" y1="212.92" x2="446.95" y2="212.92" fill="none" stroke="#b9bdc9" stroke-linecap="round" stroke-linejoin="round" stroke-width="6"/><line x1="431.95" y1="224.92" x2="446.95" y2="224.92" fill="none" stroke="#b9bdc9" stroke-linecap="round" stroke-linejoin="round" stroke-width="6"/><line x1="440.95" y1="236.92" x2="446.95" y2="236.92" fill="none" stroke="#b9bdc9" stroke-linecap="round" stroke-linejoin="round" stroke-width="6"/><line x1="430.95" y1="236.92" x2="431.95" y2="236.92" fill="none" stroke="#b9bdc9" stroke-linecap="round" stroke-linejoin="round" stroke-width="6"/><line x1="434.95" y1="248.92" x2="446.95" y2="248.92" fill="none" stroke="#b9bdc9" stroke-linecap="round" stroke-linejoin="round" stroke-width="6"/><line x1="430.95" y1="260.92" x2="446.95" y2="260.92" fill="none" stroke="#b9bdc9" stroke-linecap="round" stroke-linejoin="round" stroke-width="6"/><line x1="440.95" y1="272.92" x2="446.95" y2="272.92" fill="none" stroke="#b9bdc9" stroke-linecap="round" stroke-linejoin="round" stroke-width="6"/><line x1="441.95" y1="170.92" x2="437.95" y2="170.92" fill="none" stroke="#cfd9e5" stroke-linecap="round" stroke-linejoin="round" stroke-width="6"/><line x1="441.95" y1="182.92" x2="437.95" y2="182.92" fill="none" stroke="#cfd9e5" stroke-linecap="round" stroke-linejoin="round" stroke-width="6"/><line x1="441.95" y1="194.92" x2="437.95" y2="194.92" fill="none" stroke="#cfd9e5" stroke-linecap="round" stroke-linejoin="round" stroke-width="6"/><line x1="441.95" y1="206.92" x2="437.95" y2="206.92" fill="none" stroke="#cfd9e5" stroke-linecap="round" stroke-linejoin="round" stroke-width="6"/><line x1="441.95" y1="218.92" x2="437.95" y2="218.92" fill="none" stroke="#cfd9e5" stroke-linecap="round" stroke-linejoin="round" stroke-width="6"/><line x1="441.95" y1="230.92" x2="437.95" y2="230.92" fill="none" stroke="#cfd9e5" stroke-linecap="round" stroke-linejoin="round" stroke-width="6"/><line x1="441.95" y1="242.92" x2="437.95" y2="242.92" fill="none" stroke="#cfd9e5" stroke-linecap="round" stroke-linejoin="round" stroke-width="6"/><line x1="441.95" y1="254.92" x2="437.95" y2="254.92" fill="none" stroke="#cfd9e5" stroke-linecap="round" stroke-linejoin="round" stroke-width="6"/><line x1="441.95" y1="266.92" x2="437.95" y2="266.92" fill="none" stroke="#cfd9e5" stroke-linecap="round" stroke-linejoin="round" stroke-width="6"/><line x1="441.95" y1="158.92" x2="437.95" y2="158.92" fill="none" stroke="#cfd9e5" stroke-linecap="round" stroke-linejoin="round" stroke-width="6"/><path d="M410,154h28a18,18,0,0,1,18,18v92a18,18,0,0,1-18,18H426v32l-41-32H366m32-128h-1m-12,0H282a18,18,0,0,0-18,18v19m0,11.92V264a18,18,0,0,0,18,18h72" transform="translate(-2.05 -1.08)" fill="none" stroke="#31364c" stroke-linecap="round" stroke-linejoin="round" stroke-width="6" fill-rule="evenodd"/><line x1="415.95" y1="188.92" x2="380.95" y2="188.92" fill="none" stroke="#31364c" stroke-linecap="round" stroke-linejoin="round" stroke-width="6"/><line x1="351.95" y1="216.92" x2="415.95" y2="216.92" fill="none" stroke="#31364c" stroke-linecap="round" stroke-linejoin="round" stroke-width="6"/><line x1="415.95" y1="244.92" x2="351.95" y2="244.92" fill="none" stroke="#31364c" stroke-linecap="round" stroke-linejoin="round" stroke-width="6"/><path d="M336,203H189a18,18,0,0,0-18,18v92a18,18,0,0,0,18,18h3v32l41.08-32H336a18,18,0,0,0,18-18V221A18,18,0,0,0,336,203Z" transform="translate(-2.05 -1.08)" fill="#f2ece8" fill-rule="evenodd"/><path d="M342,205V329a12,12,0,0,0,12-12V217A12,12,0,0,0,342,205Z" transform="translate(-2.05 -1.08)" fill="#d6cfcc" fill-rule="evenodd"/><line x1="333.95" y1="213.92" x2="344.95" y2="213.92" stroke="#d6cfcc" stroke-linecap="round" stroke-linejoin="round" stroke-width="6"/><line x1="328.95" y1="225.92" x2="344.95" y2="225.92" stroke="#d6cfcc" stroke-linecap="round" stroke-linejoin="round" stroke-width="6"/><line x1="318.95" y1="225.92" x2="319.95" y2="225.92" stroke="#d6cfcc" stroke-linecap="round" stroke-linejoin="round" stroke-width="6"/><line x1="339.95" y1="237.92" x2="344.95" y2="237.92" stroke="#d6cfcc" stroke-linecap="round" stroke-linejoin="round" stroke-width="6"/><line x1="332.95" y1="249.92" x2="344.95" y2="249.92" stroke="#d6cfcc" stroke-linecap="round" stroke-linejoin="round" stroke-width="6"/><line x1="337.95" y1="261.92" x2="344.95" y2="261.92" stroke="#d6cfcc" stroke-linecap="round" stroke-linejoin="round" stroke-width="6"/><line x1="329.95" y1="273.92" x2="344.95" y2="273.92" stroke="#d6cfcc" stroke-linecap="round" stroke-linejoin="round" stroke-width="6"/><line x1="338.95" y1="285.92" x2="344.95" y2="285.92" stroke="#d6cfcc" stroke-linecap="round" stroke-linejoin="round" stroke-width="6"/><line x1="328.95" y1="285.92" x2="329.95" y2="285.92" stroke="#d6cfcc" stroke-linecap="round" stroke-linejoin="round" stroke-width="6"/><line x1="332.95" y1="297.92" x2="344.95" y2="297.92" stroke="#d6cfcc" stroke-linecap="round" stroke-linejoin="round" stroke-width="6"/><line x1="328.95" y1="309.92" x2="344.95" y2="309.92" stroke="#d6cfcc" stroke-linecap="round" stroke-linejoin="round" stroke-width="6"/><line x1="337.95" y1="321.92" x2="344.95" y2="321.92" stroke="#d6cfcc" stroke-linecap="round" stroke-linejoin="round" stroke-width="6"/><line x1="339.95" y1="219.92" x2="335.95" y2="219.92" fill="none" stroke="#f2ece8" stroke-linecap="round" stroke-linejoin="round" stroke-width="6"/><line x1="339.95" y1="231.92" x2="335.95" y2="231.92" fill="none" stroke="#f2ece8" stroke-linecap="round" stroke-linejoin="round" stroke-width="6"/><line x1="339.95" y1="243.92" x2="335.95" y2="243.92" fill="none" stroke="#f2ece8" stroke-linecap="round" stroke-linejoin="round" stroke-width="6"/><line x1="339.95" y1="255.92" x2="335.95" y2="255.92" fill="none" stroke="#f2ece8" stroke-linecap="round" stroke-linejoin="round" stroke-width="6"/><line x1="339.95" y1="267.92" x2="335.95" y2="267.92" fill="none" stroke="#f2ece8" stroke-linecap="round" stroke-linejoin="round" stroke-width="6"/><line x1="339.95" y1="279.92" x2="335.95" y2="279.92" fill="none" stroke="#f2ece8" stroke-linecap="round" stroke-linejoin="round" stroke-width="6"/><line x1="339.95" y1="291.92" x2="334.95" y2="291.92" fill="none" stroke="#f2ece8" stroke-linecap="round" stroke-linejoin="round" stroke-width="6"/><line x1="339.95" y1="303.92" x2="335.95" y2="303.92" fill="none" stroke="#f2ece8" stroke-linecap="round" stroke-linejoin="round" stroke-width="6"/><line x1="339.95" y1="315.92" x2="335.95" y2="315.92" fill="none" stroke="#f2ece8" stroke-linecap="round" stroke-linejoin="round" stroke-width="6"/><line x1="339.95" y1="207.92" x2="335.95" y2="207.92" fill="none" stroke="#f2ece8" stroke-linecap="round" stroke-linejoin="round" stroke-width="6"/><path d="M162,242V221a18,18,0,0,1,18-18h28m12,0H336a18,18,0,0,1,18,18v92a18,18,0,0,1-18,18H270m-12,0h-2m-12,0H233l-41,32V331H180a18,18,0,0,1-18-18V267m0-12v-1" transform="translate(-2.05 -1.08)" fill="none" stroke="#31364c" stroke-linecap="round" stroke-linejoin="round" stroke-width="6" fill-rule="evenodd"/><path d="M200,239h80m12,0h24" transform="translate(-2.05 -1.08)" fill="none" stroke="#31364c" stroke-linecap="round" stroke-linejoin="round" stroke-width="6" fill-rule="evenodd"/><path d="M200,267h30m12,0h30m12,0h32" transform="translate(-2.05 -1.08)" fill="none" stroke="#31364c" stroke-linecap="round" stroke-linejoin="round" stroke-width="6" fill-rule="evenodd"/><line x1="197.95" y1="293.92" x2="313.95" y2="293.92" fill="none" stroke="#31364c" stroke-linecap="round" stroke-linejoin="round" stroke-width="6"/><circle cx="492.95" cy="284.92" r="6" fill="none" stroke="#ffdb01" stroke-linecap="round" stroke-linejoin="round" stroke-width="6"/><path d="M111.59,238.22a2.81,2.81,0,0,1-2.81-2.81,3,3,0,0,0-2.65-3.07,3,3,0,0,0-3.25,2.94v0.14a2.81,2.81,0,0,1-2.81,2.81A3,3,0,0,0,97,240.87a3,3,0,0,0,2.94,3.25h0.14a2.81,2.81,0,0,1,2.81,2.81,3,3,0,0,0,2.65,3.07,3,3,0,0,0,3.25-2.94v-0.14a2.81,2.81,0,0,1,2.81-2.81h0.14a3,3,0,0,0,2.94-3.25A3,3,0,0,0,111.59,238.22Zm113-136a2.81,2.81,0,0,1-2.81-2.81,3,3,0,0,0-2.65-3.07,3,3,0,0,0-3.25,2.94v0.14a2.81,2.81,0,0,1-2.81,2.81,3,3,0,0,0-3.08,2.65,3,3,0,0,0,2.94,3.25h0.14a2.81,2.81,0,0,1,2.81,2.81,3,3,0,0,0,2.65,3.07,3,3,0,0,0,3.25-2.94v-0.14a2.81,2.81,0,0,1,2.81-2.81h0.14a3,3,0,0,0,2.94-3.25A3,3,0,0,0,224.59,102.22Z" transform="translate(-2.05 -1.08)" fill="#2a96f6"/><path d="M399.48,84.18a3.75,3.75,0,0,1-3.75-3.75,4.06,4.06,0,0,0-3.53-4.1,3.94,3.94,0,0,0-4.34,3.91v0.19a3.75,3.75,0,0,1-3.75,3.75h0a4.06,4.06,0,0,0-4.1,3.53A3.94,3.94,0,0,0,383.93,92h0.19a3.75,3.75,0,0,1,3.75,3.75,4.06,4.06,0,0,0,3.53,4.1A3.94,3.94,0,0,0,395.73,96V95.79A3.75,3.75,0,0,1,399.48,92h0.19a3.94,3.94,0,0,0,3.91-4.34A4.06,4.06,0,0,0,399.48,84.18Z" transform="translate(-2.05 -1.08)" fill="#f46b85" fill-rule="evenodd"/><path d="M490.23,102.12a10,10,0,1,1,.16,14.29l-0.16-.15-3.56,3.56m-6.29,6.31s-0.75.75-.76,0.74" transform="translate(-2.05 -1.08)" fill="none" stroke="#2a96f6" stroke-linecap="round" stroke-linejoin="round" stroke-width="6" fill-rule="evenodd"/><path d="M288.92,53.65a10,10,0,1,1,13.85,3.55l-0.19.11,2.51,4.36m4.47,7.71s0.53,0.92.52,0.93" transform="translate(-2.05 -1.08)" fill="none" stroke="#ffdb01" stroke-linecap="round" stroke-linejoin="round" stroke-width="6" fill-rule="evenodd"/><path d="M133.63,154.07a10,10,0,1,1,13.77-3.85l-0.11.19,4.36,2.52m7.72,4.44,0.91,0.54" transform="translate(-2.05 -1.08)" fill="none" stroke="#f46b85" stroke-linecap="round" stroke-linejoin="round" stroke-width="6" fill-rule="evenodd"/><path d="M259,75s-43.8,12.65-76-19C137.06,10.85,101.11-22.51,27,24" transform="translate(-2.05 -1.08)" fill="none" stroke="#7e8596" stroke-linecap="round" stroke-linejoin="round" stroke-dasharray="4 4" fill-rule="evenodd"/><polygon points="21.57 24.54 18.95 16.92 8.95 36.92 28.95 26.92 21.57 24.54" fill="#abb0bb" fill-rule="evenodd"/><path d="M142,318s-26.24,15.09-50,2c-30.5-16.8-20-48.3-70-45" transform="translate(-2.05 -1.08)" fill="none" stroke="#7e8596" stroke-linecap="round" stroke-linejoin="round" stroke-dasharray="4 4" fill-rule="evenodd"/><polygon points="17.46 274.51 19.75 266.77 0 277.26 22.09 280.72 17.46 274.51" fill="#abb0bb" fill-rule="evenodd"/></svg>