<?xml version="1.0" encoding="utf-8"?>
<!-- Generator: Adobe Illustrator 19.2.0, SVG Export Plug-In . SVG Version: 6.00 Build 0)  -->
<svg version="1.1" id="Logo_1_" xmlns="http://www.w3.org/2000/svg" xmlns:xlink="http://www.w3.org/1999/xlink" x="0px" y="0px"
	 viewBox="0 0 112 112" style="enable-background:new 0 0 112 112;" xml:space="preserve">
<style type="text/css">
	.st0{fill:none;stroke:#2A2F46;stroke-width:4;stroke-linecap:round;stroke-linejoin:round;stroke-miterlimit:100;}
	
		.st1{fill-rule:evenodd;clip-rule:evenodd;fill:none;stroke:#2A2F46;stroke-width:4;stroke-linecap:round;stroke-linejoin:round;stroke-miterlimit:100;}
	.st2{display:none;}
	.st3{display:inline;fill:#2A2F46;}
	.st4{font-family:'Pacifico-Regular';}
	.st5{font-size:29.9908px;}
	.st6{fill:#2A2F46;}
</style>
<line id="line_4_" class="st0" x1="55" y1="78" x2="55" y2="91"/>
<line id="line_1_" class="st0" x1="55" y1="18" x2="55" y2="34"/>
<path id="logo_half_bottom_1_" class="st1" d="M21.77,74.15c7.79,13.16,19.1,24.26,33.08,31.83h0
	c13.98-7.57,25.29-18.66,33.07-31.83"/>
<path id="logo_half_top_1_" class="st1" d="M100.01,33.03L100,23.56h-0.62c-9.2,0-16.65-7.48-16.65-16.71
	c0-0.46-0.37-0.83-0.83-0.83H27.6c-0.46,0-0.83,0.37-0.83,0.83c0,9.23-7.46,16.71-16.65,16.71H10V33"/>
<g id="Cascadia" class="st2">
	<text transform="matrix(0.9995 0 0 1 -1.4053 64.9971)" class="st3 st4 st5">Cascadia</text>
</g>
<g id="Cascadia_1_">
	<g>
		<path class="st6" d="M24.44,60.05c-0.48,0.2-0.94,0.48-1.39,0.81c-0.45,0.34-0.9,0.71-1.36,1.11c-0.46,0.4-0.93,0.82-1.43,1.27
			s-1.02,0.88-1.6,1.32s-1.19,0.85-1.87,1.24s-1.42,0.74-2.23,1.04c-0.81,0.3-1.71,0.53-2.69,0.71c-0.98,0.18-2.07,0.26-3.26,0.26
			c-1.32,0-2.51-0.27-3.56-0.8s-1.96-1.25-2.71-2.15c-0.75-0.9-1.33-1.95-1.73-3.15C0.2,60.51,0,59.26,0,57.94
			c0-0.9,0.1-1.86,0.29-2.89s0.48-2.08,0.84-3.15c0.37-1.07,0.81-2.14,1.34-3.2C3,47.63,3.6,46.61,4.27,45.64
			c0.67-0.98,1.4-1.88,2.2-2.72c0.8-0.83,1.65-1.56,2.56-2.18c0.91-0.62,1.86-1.11,2.87-1.46s2.05-0.53,3.13-0.53
			c0.7,0,1.41,0.12,2.14,0.37c0.72,0.25,1.37,0.63,1.95,1.15c0.58,0.52,1.05,1.17,1.41,1.96c0.37,0.79,0.55,1.72,0.55,2.8
			c0,0.72-0.11,1.45-0.34,2.19c-0.23,0.74-0.54,1.44-0.94,2.12c-0.4,0.68-0.87,1.32-1.41,1.91c-0.54,0.6-1.12,1.11-1.75,1.54
			s-1.27,0.78-1.95,1.03s-1.35,0.38-2.02,0.38c-0.89,0-1.55-0.12-1.99-0.36c-0.44-0.24-0.66-0.58-0.66-1.03c0-0.08,0-0.17-0.01-0.28
			C10,52.44,10,52.33,10,52.21c0-0.18,0.01-0.36,0.03-0.55c0.02-0.19,0.06-0.36,0.12-0.52c0.06-0.16,0.14-0.28,0.26-0.38
			s0.27-0.15,0.46-0.15c0.12,0,0.22,0.02,0.31,0.05s0.19,0.07,0.29,0.11s0.24,0.08,0.39,0.11c0.15,0.03,0.34,0.05,0.58,0.05
			c0.62,0,1.26-0.14,1.9-0.41c0.64-0.27,1.21-0.66,1.73-1.16c0.51-0.5,0.93-1.09,1.26-1.78c0.33-0.69,0.49-1.45,0.49-2.28
			c0-0.44-0.06-0.86-0.18-1.25s-0.31-0.74-0.57-1.04c-0.26-0.3-0.6-0.54-1.02-0.72c-0.41-0.18-0.92-0.27-1.51-0.27
			c-0.7,0-1.39,0.15-2.06,0.46c-0.67,0.31-1.31,0.73-1.92,1.25c-0.61,0.53-1.2,1.15-1.75,1.87c-0.55,0.72-1.06,1.5-1.53,2.32
			c-0.47,0.82-0.89,1.68-1.27,2.58c-0.38,0.89-0.69,1.78-0.96,2.67c-0.26,0.89-0.47,1.75-0.61,2.58c-0.14,0.83-0.21,1.6-0.21,2.31
			c0,1.01,0.12,1.88,0.37,2.63c0.25,0.75,0.6,1.37,1.06,1.87s1.02,0.87,1.68,1.11c0.66,0.24,1.41,0.37,2.24,0.37
			c1.03,0,2-0.13,2.89-0.39c0.89-0.26,1.74-0.6,2.55-1.02s1.59-0.89,2.35-1.42s1.51-1.06,2.27-1.59s1.53-1.04,2.31-1.52
			c0.79-0.48,1.62-0.89,2.5-1.22V60.05z"/>
		<path class="st6" d="M36.85,61.41c-0.22,0.31-0.52,0.68-0.9,1.1s-0.8,0.82-1.27,1.2c-0.47,0.38-0.97,0.7-1.51,0.97
			s-1.07,0.4-1.61,0.4c-0.64,0-1.18-0.21-1.61-0.62c-0.43-0.42-0.8-1.02-1.11-1.81c-0.23,0.27-0.52,0.55-0.86,0.83
			c-0.34,0.28-0.71,0.54-1.12,0.77c-0.41,0.23-0.83,0.42-1.27,0.56s-0.88,0.22-1.32,0.22c-0.47,0-0.92-0.09-1.37-0.29
			c-0.44-0.19-0.84-0.46-1.18-0.82c-0.34-0.36-0.61-0.79-0.82-1.3s-0.31-1.09-0.31-1.74c0-0.73,0.1-1.48,0.31-2.25
			s0.49-1.53,0.85-2.26c0.36-0.74,0.79-1.43,1.28-2.09c0.49-0.65,1.03-1.23,1.62-1.71s1.2-0.88,1.85-1.16
			c0.65-0.29,1.31-0.43,1.98-0.43c0.22,0,0.4,0.04,0.53,0.13s0.23,0.19,0.31,0.3c0.08,0.11,0.16,0.22,0.24,0.33
			c0.08,0.11,0.18,0.19,0.29,0.23s0.24,0.08,0.36,0.1s0.25,0.02,0.37,0.02c0.11,0,0.22,0,0.33-0.01c0.11,0,0.22-0.01,0.33-0.01
			c0.15,0,0.28,0.01,0.41,0.04c0.13,0.03,0.24,0.09,0.34,0.19s0.17,0.23,0.23,0.41c0.05,0.18,0.08,0.42,0.08,0.72
			c0,0.47-0.05,0.99-0.15,1.56c-0.1,0.57-0.21,1.16-0.32,1.76c-0.12,0.6-0.22,1.2-0.32,1.8c-0.1,0.6-0.15,1.17-0.15,1.71
			c0,0.46,0.04,0.82,0.12,1.08s0.26,0.39,0.53,0.39c0.21,0,0.42-0.05,0.64-0.15c0.22-0.1,0.45-0.24,0.68-0.4
			c0.23-0.17,0.46-0.35,0.69-0.56c0.23-0.21,0.45-0.43,0.65-0.65c0.48-0.53,0.96-1.12,1.45-1.79L36.85,61.41z M24.35,60.25
			c0,0.24,0.02,0.48,0.05,0.71s0.1,0.43,0.18,0.62s0.2,0.33,0.35,0.44c0.15,0.11,0.33,0.17,0.56,0.17c0.36,0,0.69-0.16,0.98-0.47
			c0.29-0.31,0.55-0.69,0.76-1.13c0.21-0.44,0.39-0.89,0.52-1.36c0.13-0.47,0.22-0.86,0.26-1.17l0.89-4.31c-0.4,0-0.79,0.1-1.17,0.3
			c-0.38,0.2-0.74,0.47-1.08,0.81c-0.34,0.34-0.65,0.73-0.93,1.17c-0.28,0.44-0.53,0.9-0.73,1.38s-0.36,0.97-0.48,1.46
			C24.41,59.36,24.35,59.82,24.35,60.25z"/>
		<path class="st6" d="M34.66,59.37c0.55-0.47,0.99-0.86,1.33-1.17c0.34-0.31,0.63-0.6,0.88-0.86c0.24-0.26,0.47-0.52,0.67-0.78
			c0.2-0.26,0.44-0.58,0.71-0.94c0.27-0.36,0.6-0.8,1-1.33c0.39-0.52,0.9-1.17,1.52-1.96c0.13-0.18,0.27-0.35,0.42-0.51
			c0.16-0.17,0.33-0.31,0.52-0.45c0.19-0.13,0.4-0.24,0.63-0.32c0.23-0.08,0.48-0.12,0.77-0.12c0.47,0,0.83,0.05,1.08,0.15
			c0.25,0.1,0.44,0.23,0.56,0.37c0.12,0.15,0.19,0.3,0.2,0.46s0.03,0.3,0.03,0.42c0,0.23-0.09,0.49-0.28,0.78
			c-0.19,0.28-0.39,0.56-0.61,0.82c-0.22,0.26-0.44,0.51-0.64,0.72c-0.2,0.22-0.31,0.38-0.34,0.49c0,0.3,0.02,0.58,0.07,0.83
			c0.04,0.25,0.1,0.49,0.18,0.73s0.15,0.49,0.23,0.76c0.08,0.27,0.15,0.58,0.23,0.93s0.13,0.76,0.18,1.22s0.07,1,0.07,1.63
			c0.35-0.23,0.73-0.45,1.13-0.64c0.4-0.19,0.83-0.39,1.27-0.59c0.44-0.21,0.89-0.43,1.35-0.68s0.93-0.55,1.4-0.9l0.01,3.28
			c-0.6,0.47-1.31,0.91-2.1,1.32c-0.8,0.41-1.63,0.77-2.5,1.08c-0.87,0.31-1.76,0.56-2.65,0.74c-0.89,0.18-1.74,0.27-2.54,0.27
			c-0.58,0-1.11-0.05-1.61-0.16s-0.93-0.28-1.31-0.5c-0.38-0.23-0.68-0.53-0.92-0.9c-0.23-0.37-0.38-0.82-0.42-1.35
			c-0.14,0.03-0.27,0.05-0.4,0.06c-0.13,0.01-0.26,0.01-0.39,0.01c-0.16,0-0.3,0-0.44-0.01c-0.14-0.01-0.25-0.05-0.35-0.11
			c-0.1-0.06-0.18-0.17-0.23-0.31c-0.06-0.14-0.09-0.34-0.09-0.61c0-0.23,0.06-0.45,0.18-0.65s0.25-0.38,0.41-0.53
			c0.16-0.16,0.31-0.29,0.47-0.41S34.58,59.44,34.66,59.37z M36.53,61.25c0.12,0,0.25,0.07,0.39,0.22c0.14,0.15,0.3,0.31,0.49,0.48
			c0.19,0.18,0.4,0.34,0.64,0.48c0.24,0.15,0.52,0.22,0.83,0.22c0.38,0,0.7-0.06,0.94-0.19c0.25-0.13,0.45-0.29,0.59-0.51
			c0.15-0.21,0.25-0.45,0.31-0.73s0.09-0.57,0.09-0.87c0-0.26-0.02-0.53-0.05-0.8s-0.08-0.54-0.13-0.78
			c-0.05-0.25-0.11-0.48-0.18-0.7s-0.12-0.41-0.17-0.56L36.53,61.25z"/>
		<path class="st6" d="M52.31,65c-0.9,0-1.69-0.17-2.36-0.5s-1.25-0.78-1.71-1.33c-0.46-0.56-0.81-1.2-1.04-1.93
			c-0.23-0.73-0.35-1.49-0.35-2.28c0-0.57,0.06-1.16,0.18-1.77c0.12-0.61,0.29-1.22,0.52-1.81c0.23-0.59,0.51-1.15,0.85-1.69
			c0.34-0.54,0.73-1.01,1.17-1.41c0.44-0.4,0.94-0.73,1.49-0.97s1.15-0.36,1.8-0.36c0.56,0,1.07,0.09,1.54,0.26
			c0.47,0.17,0.88,0.41,1.21,0.71c0.34,0.3,0.6,0.66,0.79,1.08c0.19,0.42,0.29,0.86,0.29,1.34c0,0.33-0.04,0.66-0.13,0.98
			s-0.22,0.61-0.39,0.87c-0.17,0.26-0.38,0.47-0.62,0.62c-0.24,0.16-0.52,0.23-0.82,0.23c-0.46,0-0.76-0.12-0.9-0.37
			c-0.14-0.24-0.21-0.58-0.21-1.01c0-0.18,0.01-0.36,0.02-0.56s0.02-0.37,0.02-0.53c0-0.23-0.02-0.43-0.07-0.59
			s-0.16-0.23-0.32-0.23c-0.4,0-0.74,0.1-1.02,0.29s-0.52,0.44-0.72,0.75c-0.2,0.31-0.36,0.65-0.48,1.04
			c-0.12,0.39-0.21,0.77-0.28,1.15c-0.07,0.38-0.11,0.74-0.13,1.09s-0.03,0.64-0.03,0.87c0,0.35,0.03,0.72,0.1,1.1
			c0.06,0.38,0.18,0.73,0.36,1.05c0.18,0.32,0.41,0.58,0.72,0.79c0.3,0.21,0.69,0.32,1.17,0.32c0.47,0,0.99-0.14,1.55-0.43
			s1.13-0.65,1.71-1.09c0.57-0.44,1.11-0.92,1.63-1.45c0.52-0.53,0.96-1.03,1.33-1.49l1.01,1.7c-0.73,1.04-1.52,1.98-2.37,2.8
			c-0.36,0.35-0.75,0.69-1.18,1.03c-0.42,0.33-0.87,0.63-1.33,0.89s-0.95,0.47-1.45,0.63C53.34,64.92,52.83,65,52.31,65z"/>
		<path class="st6" d="M73.87,61.41c-0.22,0.31-0.52,0.68-0.9,1.1c-0.38,0.42-0.8,0.82-1.27,1.2c-0.47,0.38-0.97,0.7-1.51,0.97
			c-0.54,0.26-1.07,0.4-1.61,0.4c-0.64,0-1.18-0.21-1.61-0.62s-0.8-1.02-1.11-1.81c-0.23,0.27-0.52,0.55-0.86,0.83
			c-0.34,0.28-0.71,0.54-1.12,0.77c-0.4,0.23-0.83,0.42-1.27,0.56s-0.88,0.22-1.32,0.22c-0.47,0-0.92-0.09-1.37-0.29
			c-0.44-0.19-0.84-0.46-1.18-0.82s-0.61-0.79-0.82-1.3s-0.31-1.09-0.31-1.74c0-0.73,0.1-1.48,0.31-2.25s0.49-1.53,0.85-2.26
			c0.36-0.74,0.79-1.43,1.28-2.09c0.49-0.65,1.03-1.23,1.62-1.71c0.58-0.49,1.2-0.88,1.85-1.16c0.65-0.29,1.31-0.43,1.98-0.43
			c0.22,0,0.4,0.04,0.53,0.13s0.23,0.19,0.31,0.3s0.16,0.22,0.24,0.33c0.08,0.11,0.17,0.19,0.29,0.23s0.24,0.08,0.36,0.1
			c0.12,0.01,0.25,0.02,0.37,0.02c0.11,0,0.22,0,0.33-0.01s0.22-0.01,0.33-0.01c0.15,0,0.28,0.01,0.41,0.04s0.24,0.09,0.34,0.19
			c0.1,0.1,0.17,0.23,0.23,0.41s0.08,0.42,0.08,0.72c0,0.47-0.05,0.99-0.15,1.56c-0.1,0.57-0.2,1.16-0.32,1.76s-0.22,1.2-0.32,1.8
			c-0.1,0.6-0.15,1.17-0.15,1.71c0,0.46,0.04,0.82,0.12,1.08s0.26,0.39,0.54,0.39c0.2,0,0.42-0.05,0.64-0.15s0.45-0.24,0.68-0.4
			s0.46-0.35,0.69-0.56s0.45-0.43,0.65-0.65c0.48-0.53,0.96-1.12,1.45-1.79L73.87,61.41z M61.37,60.25c0,0.24,0.02,0.48,0.05,0.71
			s0.1,0.43,0.18,0.62s0.21,0.33,0.35,0.44c0.15,0.11,0.33,0.17,0.56,0.17c0.36,0,0.69-0.16,0.98-0.47s0.55-0.69,0.76-1.13
			c0.21-0.44,0.39-0.89,0.52-1.36s0.22-0.86,0.26-1.17l0.89-4.31c-0.4,0-0.79,0.1-1.17,0.3s-0.74,0.47-1.08,0.81
			c-0.34,0.34-0.65,0.73-0.93,1.17s-0.53,0.9-0.73,1.38c-0.2,0.48-0.36,0.97-0.48,1.46S61.37,59.82,61.37,60.25z"/>
		<path class="st6" d="M88.65,62.13c-0.69,0.54-1.38,1.02-2.05,1.43c-0.28,0.18-0.58,0.35-0.89,0.52s-0.62,0.32-0.92,0.45
			c-0.3,0.13-0.6,0.24-0.89,0.32s-0.55,0.12-0.8,0.12c-0.14,0-0.34-0.03-0.61-0.09s-0.56-0.18-0.88-0.36
			c-0.32-0.18-0.63-0.44-0.95-0.78c-0.32-0.34-0.59-0.79-0.83-1.36c-0.36,0.35-0.74,0.69-1.15,1c-0.4,0.32-0.82,0.59-1.26,0.83
			c-0.43,0.23-0.87,0.42-1.32,0.56C75.67,64.93,75.23,65,74.78,65c-0.63,0-1.18-0.14-1.65-0.41s-0.85-0.64-1.16-1.09
			s-0.54-0.97-0.69-1.54c-0.15-0.58-0.23-1.17-0.23-1.79c0-0.63,0.08-1.26,0.24-1.9c0.16-0.64,0.39-1.26,0.7-1.86
			c0.31-0.6,0.68-1.17,1.12-1.7c0.44-0.53,0.94-1.01,1.49-1.42c0.56-0.41,1.16-0.76,1.82-1.03c0.65-0.27,1.35-0.44,2.09-0.51
			c0.03-1.25,0.14-2.48,0.34-3.7c0.19-1.22,0.45-2.38,0.78-3.49s0.7-2.12,1.13-3.06c0.43-0.94,0.91-1.75,1.43-2.43
			c0.52-0.68,1.07-1.22,1.65-1.6c0.59-0.39,1.19-0.58,1.82-0.58c0.46,0,0.85,0.12,1.17,0.36c0.32,0.24,0.58,0.56,0.78,0.95
			c0.2,0.4,0.34,0.85,0.43,1.38c0.09,0.52,0.13,1.06,0.13,1.62c0,0.34-0.01,0.69-0.04,1.05c-0.13,1.38-0.36,2.68-0.7,3.9
			c-0.34,1.23-0.74,2.42-1.2,3.58c-0.46,1.16-0.96,2.31-1.49,3.46c-0.54,1.14-1.06,2.33-1.57,3.56c-0.05,0.14-0.1,0.3-0.15,0.5
			c-0.05,0.2-0.09,0.41-0.14,0.64s-0.08,0.46-0.11,0.7s-0.04,0.47-0.04,0.7c0,0.28,0.02,0.55,0.05,0.81s0.09,0.48,0.17,0.68
			s0.18,0.36,0.31,0.48c0.13,0.12,0.3,0.18,0.49,0.18c0.18,0,0.39-0.04,0.61-0.11c0.22-0.07,0.45-0.17,0.69-0.3
			c0.24-0.13,0.49-0.27,0.74-0.43c0.25-0.16,0.49-0.32,0.72-0.49c0.54-0.39,1.1-0.83,1.68-1.33L88.65,62.13z M78.58,53.93
			c-0.64,0.31-1.22,0.72-1.72,1.24c-0.5,0.51-0.92,1.07-1.26,1.66c-0.34,0.59-0.59,1.2-0.77,1.8s-0.26,1.15-0.26,1.64
			c0,0.2,0.02,0.39,0.07,0.59s0.12,0.37,0.24,0.53s0.28,0.28,0.5,0.38c0.21,0.1,0.49,0.15,0.83,0.15c0.18,0,0.35-0.04,0.52-0.13
			s0.33-0.2,0.49-0.34s0.3-0.3,0.45-0.48s0.27-0.37,0.39-0.56c0.27-0.45,0.52-0.96,0.75-1.52c-0.03-0.14-0.05-0.35-0.07-0.65
			s-0.03-0.63-0.04-1s-0.02-0.75-0.03-1.13c-0.01-0.39-0.02-0.75-0.02-1.07s-0.01-0.59-0.02-0.79S78.59,53.92,78.58,53.93z
			 M85.46,43.31c0.06-0.68,0.09-1.23,0.09-1.63c0-0.53-0.05-0.89-0.14-1.1s-0.23-0.31-0.4-0.31c-0.31,0-0.6,0.2-0.85,0.59
			s-0.48,0.9-0.67,1.52c-0.2,0.62-0.37,1.29-0.51,2.04c-0.15,0.74-0.27,1.46-0.37,2.15c-0.1,0.69-0.18,1.32-0.23,1.87
			c-0.06,0.56-0.1,0.95-0.12,1.19c-0.04,0.48-0.07,0.94-0.1,1.38s-0.04,0.85-0.05,1.22s-0.01,0.69-0.01,0.96c0,0.27,0,0.48,0,0.63
			v0.15c0.56-1.27,1.07-2.53,1.54-3.79c0.19-0.54,0.39-1.1,0.59-1.69c0.2-0.59,0.38-1.18,0.55-1.78c0.17-0.6,0.31-1.18,0.43-1.76
			S85.41,43.83,85.46,43.31z"/>
		<path class="st6" d="M96.73,61.88c-0.35,0.32-0.79,0.67-1.31,1.03c-0.52,0.37-1.08,0.7-1.69,1.01c-0.6,0.31-1.22,0.56-1.85,0.77
			C91.25,64.89,90.65,65,90.09,65c-0.51,0-0.93-0.07-1.28-0.21s-0.63-0.34-0.84-0.59s-0.37-0.56-0.46-0.93s-0.14-0.77-0.14-1.21
			c0-0.62,0.07-1.33,0.21-2.15c0.14-0.81,0.31-1.66,0.52-2.53c0.21-0.87,0.42-1.75,0.65-2.61c0.23-0.87,0.43-1.67,0.61-2.4
			c0.07-0.25,0.21-0.47,0.41-0.65c0.21-0.18,0.44-0.33,0.7-0.44c0.26-0.11,0.53-0.2,0.8-0.25s0.53-0.08,0.75-0.08
			c0.41,0,0.69,0.08,0.83,0.23s0.22,0.35,0.22,0.61c0,0.21-0.05,0.52-0.15,0.93s-0.22,0.86-0.37,1.38c-0.15,0.51-0.3,1.06-0.47,1.65
			c-0.17,0.59-0.32,1.18-0.47,1.77s-0.27,1.17-0.37,1.73c-0.1,0.56-0.15,1.07-0.15,1.52c0,0.44,0.05,0.79,0.15,1.05
			c0.1,0.26,0.3,0.39,0.6,0.39c0.35,0,0.74-0.12,1.17-0.37s0.86-0.54,1.3-0.89s0.87-0.71,1.29-1.08c0.42-0.37,0.79-0.69,1.11-0.95
			V61.88z M90.19,46.82c0-0.22,0.05-0.48,0.15-0.76s0.26-0.55,0.48-0.8c0.22-0.25,0.51-0.46,0.88-0.63
			c0.37-0.17,0.82-0.26,1.37-0.26c0.34,0,0.66,0.04,0.97,0.12s0.57,0.2,0.79,0.36c0.22,0.16,0.4,0.37,0.53,0.64
			c0.13,0.26,0.2,0.58,0.2,0.94c0,0.33-0.05,0.65-0.16,0.97s-0.28,0.59-0.51,0.83c-0.23,0.24-0.53,0.44-0.88,0.59
			c-0.36,0.15-0.78,0.23-1.28,0.23c-0.86,0-1.49-0.2-1.9-0.61C90.39,48.04,90.19,47.5,90.19,46.82z"/>
		<path class="st6" d="M111,61.41c-0.22,0.31-0.52,0.68-0.9,1.1c-0.38,0.42-0.8,0.82-1.27,1.2c-0.47,0.38-0.97,0.7-1.51,0.97
			c-0.54,0.26-1.07,0.4-1.61,0.4c-0.64,0-1.18-0.21-1.61-0.62s-0.8-1.02-1.11-1.81c-0.23,0.27-0.52,0.55-0.86,0.83
			c-0.34,0.28-0.71,0.54-1.12,0.77c-0.4,0.23-0.83,0.42-1.27,0.56s-0.88,0.22-1.32,0.22c-0.47,0-0.92-0.09-1.37-0.29
			c-0.44-0.19-0.84-0.46-1.18-0.82s-0.61-0.79-0.82-1.3s-0.31-1.09-0.31-1.74c0-0.73,0.1-1.48,0.31-2.25s0.49-1.53,0.85-2.26
			c0.36-0.74,0.79-1.43,1.28-2.09c0.49-0.65,1.03-1.23,1.62-1.71c0.58-0.49,1.2-0.88,1.85-1.16c0.65-0.29,1.31-0.43,1.98-0.43
			c0.22,0,0.4,0.04,0.53,0.13s0.23,0.19,0.31,0.3s0.16,0.22,0.24,0.33c0.08,0.11,0.17,0.19,0.29,0.23s0.24,0.08,0.36,0.1
			c0.12,0.01,0.25,0.02,0.37,0.02c0.11,0,0.22,0,0.33-0.01s0.22-0.01,0.33-0.01c0.15,0,0.28,0.01,0.41,0.04s0.24,0.09,0.34,0.19
			c0.1,0.1,0.17,0.23,0.23,0.41s0.08,0.42,0.08,0.72c0,0.47-0.05,0.99-0.15,1.56c-0.1,0.57-0.2,1.16-0.32,1.76s-0.22,1.2-0.32,1.8
			c-0.1,0.6-0.15,1.17-0.15,1.71c0,0.46,0.04,0.82,0.12,1.08s0.26,0.39,0.54,0.39c0.2,0,0.42-0.05,0.64-0.15s0.45-0.24,0.68-0.4
			s0.46-0.35,0.69-0.56s0.45-0.43,0.65-0.65c0.48-0.53,0.96-1.12,1.45-1.79L111,61.41z M98.5,60.25c0,0.24,0.02,0.48,0.05,0.71
			s0.1,0.43,0.18,0.62s0.21,0.33,0.35,0.44c0.15,0.11,0.33,0.17,0.56,0.17c0.36,0,0.69-0.16,0.98-0.47s0.55-0.69,0.76-1.13
			c0.21-0.44,0.39-0.89,0.52-1.36s0.22-0.86,0.26-1.17l0.89-4.31c-0.4,0-0.79,0.1-1.17,0.3s-0.74,0.47-1.08,0.81
			c-0.34,0.34-0.65,0.73-0.93,1.17s-0.53,0.9-0.73,1.38c-0.2,0.48-0.36,0.97-0.48,1.46S98.5,59.82,98.5,60.25z"/>
	</g>
</g>
</svg>
